<svg xmlns="http://www.w3.org/2000/svg" viewBox="0 0 525.54 307.72"><defs><linearGradient id="Unbenannter_Verlauf_48" x1="3.52" y1="170.04" x2="529.05" y2="170.04" gradientUnits="userSpaceOnUse"><stop offset="0" stop-color="#a47a1e"/><stop offset=".05" stop-color="#b0862a"/><stop offset=".2" stop-color="#d3a84c"/><stop offset=".34" stop-color="#ffec94"/><stop offset=".52" stop-color="#e6be69"/><stop offset=".7" stop-color="#ffd87c"/><stop offset=".85" stop-color="#b58f3e"/><stop offset="1" stop-color="#956d13"/></linearGradient><style>.cls-1{fill:#d3cd05}.cls-2{fill:url(#Unbenannter_Verlauf_48)}</style></defs><g id="Ebene_2" data-name="Ebene 2"><g id="Ebene_1-2" data-name="Ebene 1"><path class="cls-1" d="M121.48 31.2a25.61 25.61 0 0 1-.67 5.56c-.45 2-.88 3-1.3 3a.43.43 0 0 1-.49-.49 1.43 1.43 0 0 1 .1-.44 20.67 20.67 0 0 0 1.29-7.36 13.5 13.5 0 0 0-3.66-9.88 12.94 12.94 0 0 0-9.67-3.73q-8.25 0-16.7 5.32Q97.61 29 97.61 35.7A12.5 12.5 0 0 1 93 45.43a21.77 21.77 0 0 1-12 5 9.3 9.3 0 0 1 5.07 8.5q0 3.72-2.58 11.29a26 26 0 0 0-1.7 7.78 6.62 6.62 0 0 0 2.1 5A7.14 7.14 0 0 0 89 85a9.73 9.73 0 0 0 6-2.1 2.14 2.14 0 0 1 .88-.39.34.34 0 0 1 .39.39c0 .55-.92 1.19-2.74 1.92a13.35 13.35 0 0 1-4.74 1.09 10 10 0 0 1-7.88-3.74 13.79 13.79 0 0 1-3.17-9.26q0-4 3.51-14.12a14 14 0 0 0 .88-4.4 5 5 0 0 0-1.9-3.91c-2.09.2-3.28.29-3.57.29-3.22 0-4.83-.4-4.83-1.22 0-.52.81-.78 2.44-.78A15.93 15.93 0 0 1 80 49.89a15 15 0 0 0 9.5-5.39A15.89 15.89 0 0 0 93.21 34a14 14 0 0 0-3.71-9.17l-.5-.65q-10.7 8-20.21 27.93Q63 64.17 58.25 69.5a44.39 44.39 0 0 1-13.43 9.62q-10.2 5-18.21 5a18.74 18.74 0 0 1-10.89-3c-2.89-2-4.34-4.5-4.34-7.5a6.49 6.49 0 0 1 1.51-4.3 4.54 4.54 0 0 1 3.57-1.8c2 0 3 1.1 3 3.32a4.2 4.2 0 0 1-1 2.83A3.11 3.11 0 0 1 16 74.82c-1.7 0-2.51-.88-2.44-2.64 0-.71 0-1.07-.2-1.07-.52 0-.78.86-.78 2.59q0 4 4 6.74a17.52 17.52 0 0 0 10 2.68q10.69 0 19.38-7.91a50.22 50.22 0 0 0 6.49-7.08q2.92-3.9 12.78-18.95a133.54 133.54 0 0 1 11.58-14.89q6.69-7.47 11.37-10.69-7.61-6.5-22.36-6.49Q45.21 17.11 30 32 17.49 44.21 17.48 55A11.2 11.2 0 0 0 21 63.69q3.51 3.23 9.52 3.22 9.81 0 20.29-9.42t10.47-18.31q0-7.08-7.28-7.08t-15.6 8.12q-8.32 8.13-8.32 15.24a4.28 4.28 0 0 0 1.18 3 3.61 3.61 0 0 0 2.74 1.3c.56 0 .84.15.84.44s-.31.39-.93.39a4.85 4.85 0 0 1-4-2.12 8.33 8.33 0 0 1-1.62-5.2q0-7.6 8.35-14.83t17.14-7.22q8.4 0 8.4 7.76 0 9.48-10.7 19.14t-21.06 9.67q-6.8 0-10.86-4.08T15.48 52.8q0-13.81 15.6-25.22a57.14 57.14 0 0 1 34.5-11.4q14.36 0 24.12 6.39Q98.63 17 107 17a14.42 14.42 0 0 1 10.53 3.9 13.76 13.76 0 0 1 3.95 10.3Z" transform="translate(-3.52 -16.18)"/><path class="cls-1" d="M126.2 66.74a6.18 6.18 0 0 1-.88 1.27l-2.1 2.63q-10.12 12.48-17.35 12.48a7.6 7.6 0 0 1-5.75-2.46 8.72 8.72 0 0 1-2.32-6.18q0-8.79 12.26-15.48 6.45-3.51 10.5-3.51a4.5 4.5 0 0 1 3 1 3.22 3.22 0 0 1 1.24 2.56c0 2.34-1.52 4.34-4.59 6s-8.17 3.18-15.33 4.61q-3.31 5-3.32 8.4 0 4.2 4.55 4.2 7.73 0 18.91-15.06c.39-.52.72-.78 1-.78a.26.26 0 0 1 .18.32Zm-4.13-9.06q0-1.56-1.71-1.56-2.58 0-6.81 3.59a50 50 0 0 0-8.28 9.3 38 38 0 0 0 11.92-5.1c3.25-2.2 4.88-4.27 4.88-6.23Z" transform="translate(-3.52 -16.18)"/><path class="cls-1" d="M156.91 66.74q0 .74-5.38 6.68A59.52 59.52 0 0 1 136 85.22l-2.4 4.3q-7.08 12.69-14.79 18.9-8 6.39-13.82 6.39a4.65 4.65 0 0 1-3.34-1.27 4.11 4.11 0 0 1-1.35-3.12q0-9.83 22.61-20.32c1.24-.61 3.09-1.48 5.57-2.58l.73-.44 8.59-15.29a76.43 76.43 0 0 1-7.38 9.21 6.8 6.8 0 0 1-4.64 2.17 4.51 4.51 0 0 1-3.49-1.71 5.91 5.91 0 0 1-1.49-4q0-2.79 3.47-8.69L131.79 56a15.23 15.23 0 0 0 2.59.2 26.16 26.16 0 0 0 3.51-.34l-9.62 15.64q-4.09 6.65-4.1 8.69c0 1.47.67 2.2 2 2.2q5.28 0 16.21-18.7l4.5-7.67a16.15 16.15 0 0 0 2.73.2 20.37 20.37 0 0 0 3.27-.34q-6.06 9.62-16.41 28.22a50 50 0 0 0 10.07-6.66 73.65 73.65 0 0 0 9.2-10.11c.45-.59.75-.88.88-.88a.25.25 0 0 1 .29.29Zm-28.2 21.17q-.78.44-5.52 2.78Q101 101.73 101 110.51c0 2.45 1.36 3.67 4.1 3.67q5.17 0 10.3-5.62t12.7-19.68Z" transform="translate(-3.52 -16.18)"/><path class="cls-1" d="M188.21 66.59a1.37 1.37 0 0 1-.49.88l-2.1 2.89q-9.19 12.77-13.69 12.76a4.92 4.92 0 0 1-3.84-1.68 6.17 6.17 0 0 1-1.49-4.23q0-3.4 3.71-8.93 5.82-8.55 5.81-10.16c0-1.27-.66-1.9-2-1.9q-2.93 0-8 5.76-4.87 5.52-13.42 20.9a12.8 12.8 0 0 0-2.49-.3 18.67 18.67 0 0 0-2.89.3l7.18-13q1.5-2.78 4.5-8.19 1.62-2.64 9.92-16.8l7.42-12.6a12.53 12.53 0 0 0 2.49.29 14 14 0 0 0 3.71-.48q-5.09 8.15-15.14 24.41-.28.5-7.57 12.6 9.17-13.62 14.49-13.62a4.52 4.52 0 0 1 3.59 1.8 6.71 6.71 0 0 1 1.48 4.4q0 3.36-4.29 9.71-4.78 7.08-4.79 8.89a1.86 1.86 0 0 0 2.11 2.1q3.81 0 12.61-12.32l1.52-2.07.88-1.07c.16-.33.36-.49.58-.49s.2.02.2.15Z" transform="translate(-3.52 -16.18)"/><path class="cls-1" d="M222.63 66.69q0 1-7.13 9.49-5.77 6.94-9.1 6.94a4.55 4.55 0 0 1-3.66-1.68 6.33 6.33 0 0 1-1.42-4.23 12.75 12.75 0 0 1 1.56-5.71 67.79 67.79 0 0 1-7.47 9.23 7.59 7.59 0 0 1-5 2.39A5.34 5.34 0 0 1 186 80.9a8.67 8.67 0 0 1-1.76-5.59q0-9.37 13.23-16.6 5.81-3.23 9.37-3.22c2 0 3 1 3 2.93a8.43 8.43 0 0 1-.39 2.19l2.55-4.73a12.06 12.06 0 0 0 2.59.34 23.22 23.22 0 0 0 3.42-.34l-8.64 14.3q-4.5 7.53-4.5 9.91c0 1.53.64 2.3 1.91 2.3s3.39-1.49 6.26-4.47a83.78 83.78 0 0 0 8.75-11c.2-.33.38-.49.54-.49a.25.25 0 0 1 .3.26Zm-13.45-8.08c0-1.59-.73-2.39-2.2-2.39q-4.48 0-11.79 8.79t-7.3 14.21c0 2.11.94 3.17 2.83 3.17q3.38 0 11.67-11.18 6.8-9.21 6.79-12.6Z" transform="translate(-3.52 -16.18)"/><path class="cls-1" d="M261.84 66.69q0 1-7.09 9.49-5.81 6.94-9.14 6.94a4.72 4.72 0 0 1-3.69-1.71 6.18 6.18 0 0 1-1.49-4.2 9.29 9.29 0 0 1 .9-4.07 76.9 76.9 0 0 1 4.67-7.45q4-5.86 4-7.47c0-1.33-.7-2-2.1-2q-7.12 0-22 26.46c-1.6-.13-2.56-.19-2.88-.19a25.4 25.4 0 0 0-3.23.19l7.62-12.06q6.5-10.35 6.5-12.94c0-1-.41-1.46-1.23-1.46q-2.49 0-9.83 10.52c-.3.42-.52.65-.69.68s-.26-.09-.29-.29a.73.73 0 0 1 .2-.39l.93-1.22q7.47-10 10.07-10a3.5 3.5 0 0 1 2.87 1.48 5.73 5.73 0 0 1 1.17 3.61q0 3.14-3.66 8.69a85 85 0 0 1 8.86-10.88c2.07-2 4-2.93 5.74-2.93a4.53 4.53 0 0 1 3.61 1.75 6.56 6.56 0 0 1 1.46 4.35q0 3.27-4.49 10t-4.63 8.8a1.77 1.77 0 0 0 2 2q4.35 0 15-15.5c.16-.33.32-.49.49-.49a.26.26 0 0 1 .35.29ZM288.94 31.44c0 .16-.29.36-.88.58a11.81 11.81 0 0 0-3.32 2c-1 .87-1.49 1.59-1.49 2.18 0 .2.16.29.49.29 1.47 0 2.2.71 2.2 2.11a6.24 6.24 0 0 1-2 4.06c-1.32 1.43-2.56 2.15-3.74 2.15-1.33 0-2-.7-2-2.1q0-2.79 4-7.19t6.46-4.41a.26.26 0 0 1 .28.33ZM299.22 47.75q0 1.94-6.1 7.74a13.66 13.66 0 0 0-.3 2.63c0 1.89.87 4.88 2.59 9a13.66 13.66 0 0 1 1.32 5.17c0 2.93-1.43 5.47-4.27 7.62a16.35 16.35 0 0 1-10.14 3.22 7.33 7.33 0 0 1-5.32-1.89 6.63 6.63 0 0 1-2-5 11.74 11.74 0 0 1 2.61-7.13q2.61-3.47 5.4-3.47a2 2 0 0 1 .88.2l3.9-4.79c1.17-1.4 2.74-3.33 4.69-5.81a17.12 17.12 0 0 1 2.54-5.86c1.14-1.62 2.26-2.44 3.37-2.44.61-.05.83.24.83.81ZM292.43 67c0-1 0-2-.1-2.91s-.09-2.33-.09-4.12a28.48 28.48 0 0 1 .19-3.66q-2.73 3.47-7.91 9.76a2.41 2.41 0 0 1 .93 1.91q0 2.88-4.74 3.9a6 6 0 0 0-3.29 2.12 5.24 5.24 0 0 0-1.42 3.41 4.3 4.3 0 0 0 1.41 3.27A5 5 0 0 0 281 82q4.1 0 7.79-4.76A16.46 16.46 0 0 0 292.43 67ZM30.42 202H3.52v-.78h1a6.45 6.45 0 0 0 4.72-2q2-2 2-5.93V139a8.89 8.89 0 0 0-1.83-6 6.19 6.19 0 0 0-5-2.12h-.89v-.83H27a26.07 26.07 0 0 1 8.55 1.34 19.44 19.44 0 0 1 6.61 3.71 17.07 17.07 0 0 1 4.18 5.37A14.73 14.73 0 0 1 47.8 147a14 14 0 0 1-4.2 10.55 25.41 25.41 0 0 1-11.28 6v.2a54.36 54.36 0 0 1 6.21 1 23.28 23.28 0 0 1 5.37 1.91 19.84 19.84 0 0 1 4.49 3.17 18.93 18.93 0 0 1 3.22 3.86 17 17 0 0 1 2 4.56 18.72 18.72 0 0 1 .69 5.06 16.17 16.17 0 0 1-2.91 9.69 20.9 20.9 0 0 1-6.57 6.15Q39.6 202 30.42 202ZM18.6 163.08h4.69c3.84 0 6.58-.39 8.2-1.17a17.66 17.66 0 0 0 3.25-2.15 13.45 13.45 0 0 0 3.26-4.29 15 15 0 0 0 1.54-7.08 18.34 18.34 0 0 0-1-6.13 15.8 15.8 0 0 0-3-5.15 14 14 0 0 0-4.64-3.52 13.47 13.47 0 0 0-5.9-1.27 22.69 22.69 0 0 0-6.4 1.08Zm7.38 2.2H18.6v25.93a15.56 15.56 0 0 0 .52 4.32 5.31 5.31 0 0 0 2.8 3q2.29 1.28 7.08 1.27 9.91 0 14.12-6.59a19.66 19.66 0 0 0 1.44-17.63 15.48 15.48 0 0 0-4-5.54 18.11 18.11 0 0 0-6.32-3.49 26 26 0 0 0-8.24-1.27ZM83.84 130.08v.83a8.47 8.47 0 0 0-5.47 1.8q-2.25 1.81-2.25 6v54.59q0 4.14 2.4 6a8.4 8.4 0 0 0 5.32 1.88v.82H61v-.78a8.32 8.32 0 0 0 5.39-1.83c1.52-1.22 2.27-3.25 2.27-6.08v-54.59c0-3-.75-5.05-2.27-6.15a8.85 8.85 0 0 0-5.39-1.66v-.83ZM91.89 131.1h-1v-1h24.9a25 25 0 0 1 10.21 1.83 17.2 17.2 0 0 1 6.5 4.71 18.54 18.54 0 0 1 3.32 6 21 21 0 0 1 1 6.25 17.88 17.88 0 0 1-1.64 7.5 16.12 16.12 0 0 1-5 6.17 19.5 19.5 0 0 1-8.47 3.52v.2q6.45 3.12 11.91 12.4l6.5 11q4.4 7.38 7 9.33a10.65 10.65 0 0 0 5.25 2.2v.79h-13.06c-.56-.72-1.08-1.41-1.57-2.08l-1.56-2.12-1.44-2.22a17.17 17.17 0 0 0-1.15-1.69L125 179.68a35.94 35.94 0 0 0-5.3-7.05 20.1 20.1 0 0 0-5-3.88 14.92 14.92 0 0 0-4.22-1.47A29.93 29.93 0 0 0 106 167v26.32q0 7.66 7.81 7.91v.77H90.92v-.78a11.11 11.11 0 0 0 3.81-.81 6.12 6.12 0 0 0 2.76-2.41 8.64 8.64 0 0 0 1.09-4.66v-54.4q0-4.29-2.1-6a7 7 0 0 0-4.59-1.84Zm14.12 34h4.1a25.88 25.88 0 0 0 10.57-1.85 12.18 12.18 0 0 0 6-5.3 17.5 17.5 0 0 0 1.86-8.42 21 21 0 0 0-1.66-8.13 15.16 15.16 0 0 0-5.64-6.69q-4-2.72-10.72-2.71a19.14 19.14 0 0 0-4.49.44ZM211.77 144.09H211q-.54-7-4.11-9.11a17.21 17.21 0 0 0-8.78-2.07h-14.32v60.4q0 7.66 7.81 7.91v.78h-22.9v-.78a8.93 8.93 0 0 0 5.45-1.88q2.22-1.78 2.22-6v-60.4h-14.31a17.11 17.11 0 0 0-8.76 2.06q-3.54 2.09-4.13 9.11h-.78v-17.6h.78a11.28 11.28 0 0 0 1.37 1.81 5 5 0 0 0 1.51 1 7.72 7.72 0 0 0 2.17.58 21.05 21.05 0 0 0 3 .18h46.58a8.43 8.43 0 0 0 7.23-3.57h.78ZM273.19 163v-24.09a8.6 8.6 0 0 0-1.9-5.76c-1.27-1.5-3.24-2.24-5.91-2.24v-.83h22.9v.83q-4 0-5.86 2.22a8.75 8.75 0 0 0-1.85 5.78v54.4q0 7.91 7.71 7.91v.78h-22.9v-.78a8 8 0 0 0 5.74-2 7.69 7.69 0 0 0 2.07-5.83v-28.21H232v28.13a7.27 7.27 0 0 0 7.81 7.91v.78h-22.9v-.78a7.45 7.45 0 0 0 5.69-2.08 8.11 8.11 0 0 0 2-5.83v-54.4q0-8-7.67-8v-.83h22.9v.83c-2.7 0-4.67.74-5.93 2.22a8.66 8.66 0 0 0-1.88 5.78V163ZM295.26 130.91v-.83H323a53.52 53.52 0 0 1 10.72 1 44.83 44.83 0 0 1 8.79 2.66 37.19 37.19 0 0 1 6.71 3.64 31.7 31.7 0 0 1 4.79 4 36.39 36.39 0 0 1 5.81 7.6 35.71 35.71 0 0 1 3.59 8.81 38.49 38.49 0 0 1 1.19 9.57 36.61 36.61 0 0 1-1.17 9.37A33.11 33.11 0 0 1 360 185a33.91 33.91 0 0 1-5.25 6.86 37.79 37.79 0 0 1-7.1 5.57 33.52 33.52 0 0 1-8 3.32 46.3 46.3 0 0 1-12.11 1.25h-32.28v-.78h1a5.61 5.61 0 0 0 5-2.54 9.61 9.61 0 0 0 1.66-5.37V139a10.49 10.49 0 0 0-.9-4.59 5.85 5.85 0 0 0-2.42-2.68 6.82 6.82 0 0 0-3.37-.83Zm15.09 2.58v57c0 2.8.45 4.85 1.35 6.17a6.31 6.31 0 0 0 4.17 2.57 44.1 44.1 0 0 0 8.3.58 48.3 48.3 0 0 0 13.18-1.54q5.37-1.53 10.4-6.86a29.89 29.89 0 0 0 6-9.66 37.78 37.78 0 0 0 2.25-13.83 45.33 45.33 0 0 0-1.81-12.67 33.32 33.32 0 0 0-5.52-11.16 28.42 28.42 0 0 0-10.67-8.64 35.93 35.93 0 0 0-15.69-3.13 76.74 76.74 0 0 0-11.96 1.17ZM400.29 129.2l21.54 61.62a30.08 30.08 0 0 0 3.22 6.93 7.29 7.29 0 0 0 2.91 2.71 12.32 12.32 0 0 0 3.53.76v.78H408v-.78a17.41 17.41 0 0 0 5.56-.69c1.31-.45 2-1.69 2-3.71a15 15 0 0 0-.93-4.44 1.54 1.54 0 0 1-.2-.59L408 172.7h-24.9l-5.72 17.68a20 20 0 0 0-1.17 5.81c0 2 .5 3.36 1.51 4a7.86 7.86 0 0 0 4.3 1v.81h-16.88v-.78a8.57 8.57 0 0 0 5.78-2.76 20.66 20.66 0 0 0 3.79-7.35L395 129.2Zm-16.35 40.91h22.9L395.12 136h-.2ZM490.38 130.08v.83a11.5 11.5 0 0 0-5.74 1.51 16.34 16.34 0 0 0-3.93 3.05 48.14 48.14 0 0 0-3 3.83l-16.8 25.3v28.81a7.06 7.06 0 0 0 2.32 5.78 8.89 8.89 0 0 0 5.59 2v.81H446v-.78a8.15 8.15 0 0 0 5.49-2c1.35-1.25 2-3.2 2-5.83v-27.57l-18.31-27.44q-2.94-4.45-5.25-5.91a12.18 12.18 0 0 0-6.28-1.56v-.83h25.54v.83q-3.9.14-5 1.68a5.08 5.08 0 0 0-1.09 2.91q0 1.56 1.9 4.39l15 22.22 13.28-20c2-3 3-5.29 3-6.89a3.83 3.83 0 0 0-.81-2.59 4.1 4.1 0 0 0-1.63-1.22 15.07 15.07 0 0 0-1.76-.48v-.83ZM68.51 266.19h-.83a15.37 15.37 0 0 0-5-8.94 24.93 24.93 0 0 0-9.25-5.34 31.78 31.78 0 0 0-9.77-1.69 26.58 26.58 0 0 0-11.64 2.61 27.65 27.65 0 0 0-9.4 7.38 34.64 34.64 0 0 0-6.16 11.42 46.17 46.17 0 0 0-2.19 14.48 44.91 44.91 0 0 0 2.12 14 32.78 32.78 0 0 0 6.2 11.23 27.26 27.26 0 0 0 9.45 7.2A28.41 28.41 0 0 0 44 321a37.71 37.71 0 0 0 12-2.22 30.92 30.92 0 0 0 11.81-7.4v2.79a57.19 57.19 0 0 1-11.89 7.37 33.85 33.85 0 0 1-13.45 2.34A37.84 37.84 0 0 1 27 320.8a35 35 0 0 1-11.84-8.37 36.41 36.41 0 0 1-7.33-11.87A38.09 38.09 0 0 1 5.32 287a39.29 39.29 0 0 1 19.19-33.77A37 37 0 0 1 43.7 248a53.48 53.48 0 0 1 13.62 1.9l5.08 1.42a13.51 13.51 0 0 0 2.49.29 4.06 4.06 0 0 0 2.54-.56 3.84 3.84 0 0 0 1-2h.78ZM108.3 249.2l21.53 61.62a30.45 30.45 0 0 0 3.23 6.93 7.34 7.34 0 0 0 2.9 2.71 12.47 12.47 0 0 0 3.54.76v.78H116v-.78a17.45 17.45 0 0 0 5.56-.69c1.3-.45 2-1.69 2-3.71a15 15 0 0 0-.93-4.44 1.54 1.54 0 0 1-.2-.59L116 292.7H91.11l-5.71 17.68a20 20 0 0 0-1.17 5.81c0 2 .5 3.36 1.51 4a7.83 7.83 0 0 0 4.3 1v.81h-16.9v-.78a8.57 8.57 0 0 0 5.79-2.76 20.5 20.5 0 0 0 3.78-7.35L103 249.2Zm-16.36 40.91h22.9L103.12 256h-.19ZM144.43 321.22h1a6.31 6.31 0 0 0 4.66-2.08 8 8 0 0 0 2-5.83V259c0-3-.76-5.08-2.27-6.25a9 9 0 0 0-5.4-1.85v-.83h23v.83a9.36 9.36 0 0 0-5.37 1.8q-2.34 1.71-2.34 6.3v52.5c0 3.13.78 5.29 2.34 6.5s4.12 1.8 7.67 1.8h6.2a17.67 17.67 0 0 0 6.47-1 8.52 8.52 0 0 0 3.83-3 28.83 28.83 0 0 0 2.88-5.67h.83L187.21 322h-42.78ZM194.24 250.91v-.83h42.87v11.32h-.68q0-9.07-12.11-9.08h-15V285h13.18a18.28 18.28 0 0 0 7-1.27q3.07-1.28 3.52-5.81h.73v16.31H233a9 9 0 0 0-1.66-4.28 6.43 6.43 0 0 0-2.42-2 5.63 5.63 0 0 0-2.12-.49 21.9 21.9 0 0 0-3.67-.3h-13.8v25.54a10.52 10.52 0 0 0 1.1 5q1.09 2.1 5.1 2.1h10.69a15.5 15.5 0 0 0 6.35-1.12 9.54 9.54 0 0 0 3.93-3.13 18.48 18.48 0 0 0 2.42-4.83h.68L237.11 322h-42.87v-.78h1a7 7 0 0 0 4.5-1.86q2.19-1.85 2.19-6.05v-54.2a10.85 10.85 0 0 0-1.48-5.76c-1-1.63-2.73-2.44-5.21-2.44ZM319.78 250.08v.83a15 15 0 0 0-4.32 1.05 4.91 4.91 0 0 0-2.47 2.78 15.83 15.83 0 0 0-.88 6v63.09h-.49l-55.22-61.65v44.24a54.67 54.67 0 0 0 .44 8.21 9.43 9.43 0 0 0 1.27 3.85q1.8 2.55 6.29 2.74v.78h-18v-.78a9.09 9.09 0 0 0 4.71-1.3 6.63 6.63 0 0 0 2.39-4.2 44.1 44.1 0 0 0 .71-9.2V259.6l-2.39-2.69a19.86 19.86 0 0 0-5.08-4.56 16.81 16.81 0 0 0-4.74-1.44v-.83h13.53L309.91 311v-46.42a55 55 0 0 0-.41-7.82 6.78 6.78 0 0 0-2.2-4.15q-1.79-1.56-5.59-1.7v-.83ZM326.71 250.91v-.83h27.68a53.45 53.45 0 0 1 10.72 1 44.83 44.83 0 0 1 8.79 2.66 37 37 0 0 1 6.72 3.64 31.59 31.59 0 0 1 4.78 4 35.72 35.72 0 0 1 5.81 7.6 35.33 35.33 0 0 1 3.59 8.81 38 38 0 0 1 1.2 9.57 36.18 36.18 0 0 1-1.18 9.37 33.08 33.08 0 0 1-3.36 8.23 33.91 33.91 0 0 1-5.25 6.86 38.2 38.2 0 0 1-7.11 5.57 33.35 33.35 0 0 1-8 3.32A46.19 46.19 0 0 1 359 322h-32.29v-.78h1a5.59 5.59 0 0 0 5-2.54 9.62 9.62 0 0 0 1.67-5.37V259a10.49 10.49 0 0 0-.91-4.59 5.8 5.8 0 0 0-2.42-2.68 6.8 6.8 0 0 0-3.36-.83Zm15.09 2.58v57c0 2.8.44 4.85 1.34 6.17a6.35 6.35 0 0 0 4.17 2.57 44.22 44.22 0 0 0 8.31.58 48.35 48.35 0 0 0 13.18-1.54q5.37-1.53 10.4-6.86a30.07 30.07 0 0 0 6-9.66 38 38 0 0 0 2.24-13.82 45.69 45.69 0 0 0-1.8-12.67 33.7 33.7 0 0 0-5.52-11.16 28.49 28.49 0 0 0-10.67-8.64 36 36 0 0 0-15.7-3.13 76.52 76.52 0 0 0-11.95 1.16ZM431.74 249.2l21.53 61.62a30.51 30.51 0 0 0 3.22 6.93 7.29 7.29 0 0 0 2.91 2.71 12.47 12.47 0 0 0 3.54.76v.78h-23.49v-.78a17.48 17.48 0 0 0 5.57-.69c1.3-.45 2-1.69 2-3.71a15 15 0 0 0-.93-4.44 1.48 1.48 0 0 1-.19-.59l-6.4-19.09h-24.9l-5.71 17.68a20 20 0 0 0-1.17 5.81c0 2 .5 3.36 1.51 4a7.83 7.83 0 0 0 4.3 1v.81h-16.9v-.78a8.57 8.57 0 0 0 5.79-2.76 20.5 20.5 0 0 0 3.78-7.35l20.31-61.91Zm-16.36 40.91h22.9L426.56 256h-.19ZM468.55 251.1h-1v-1h24.9a25 25 0 0 1 10.18 1.85 17.2 17.2 0 0 1 6.5 4.71 18.54 18.54 0 0 1 3.32 6 21 21 0 0 1 1 6.25 17.88 17.88 0 0 1-1.64 7.5 16.12 16.12 0 0 1-5 6.17 19.5 19.5 0 0 1-8.47 3.52v.2q6.45 3.12 11.91 12.4l6.5 11q4.39 7.38 7 9.33a10.65 10.65 0 0 0 5.25 2.2v.77h-13c-.56-.72-1.08-1.41-1.57-2.08l-1.56-2.12-1.44-2.22a17.17 17.17 0 0 0-1.15-1.69l-8.59-14.21a35.94 35.94 0 0 0-5.3-7.05 20.1 20.1 0 0 0-5.05-3.88 14.92 14.92 0 0 0-4.22-1.47 29.93 29.93 0 0 0-4.42-.29v26.32q0 7.67 7.81 7.91v.78h-22.9v-.78a11.11 11.11 0 0 0 3.81-.81 6.12 6.12 0 0 0 2.76-2.44 8.64 8.64 0 0 0 1.09-4.66v-54.4q0-4.29-2.1-6.05a7 7 0 0 0-4.62-1.76Zm14.12 34h4.1a25.88 25.88 0 0 0 10.57-1.85 12.18 12.18 0 0 0 6-5.3 17.5 17.5 0 0 0 1.86-8.42 21 21 0 0 0-1.66-8.13 15.16 15.16 0 0 0-5.64-6.69q-4-2.72-10.72-2.71a19.14 19.14 0 0 0-4.49.44Z" transform="translate(-3.52 -16.18)"/><path class="cls-2" d="M121.48 31.2a25.61 25.61 0 0 1-.67 5.56c-.45 2-.88 3-1.3 3a.43.43 0 0 1-.49-.49 1.43 1.43 0 0 1 .1-.44 20.67 20.67 0 0 0 1.29-7.36 13.5 13.5 0 0 0-3.66-9.88 12.94 12.94 0 0 0-9.67-3.73q-8.25 0-16.7 5.32Q97.61 29 97.61 35.7A12.5 12.5 0 0 1 93 45.43a21.77 21.77 0 0 1-12 5 9.3 9.3 0 0 1 5.07 8.5q0 3.72-2.58 11.29a26 26 0 0 0-1.7 7.78 6.62 6.62 0 0 0 2.1 5A7.14 7.14 0 0 0 89 85a9.73 9.73 0 0 0 6-2.1 2.14 2.14 0 0 1 .88-.39.34.34 0 0 1 .39.39c0 .55-.92 1.19-2.74 1.92a13.35 13.35 0 0 1-4.74 1.09 10 10 0 0 1-7.88-3.74 13.79 13.79 0 0 1-3.17-9.26q0-4 3.51-14.12a14 14 0 0 0 .88-4.4 5 5 0 0 0-1.9-3.91c-2.09.2-3.28.29-3.57.29-3.22 0-4.83-.4-4.83-1.22 0-.52.81-.78 2.44-.78A15.93 15.93 0 0 1 80 49.89a15 15 0 0 0 9.5-5.39A15.89 15.89 0 0 0 93.21 34a14 14 0 0 0-3.71-9.17l-.5-.65q-10.7 8-20.21 27.93Q63 64.17 58.25 69.5a44.39 44.39 0 0 1-13.43 9.62q-10.2 5-18.21 5a18.74 18.74 0 0 1-10.89-3c-2.89-2-4.34-4.5-4.34-7.5a6.49 6.49 0 0 1 1.51-4.3 4.54 4.54 0 0 1 3.57-1.8c2 0 3 1.1 3 3.32a4.2 4.2 0 0 1-1 2.83A3.11 3.11 0 0 1 16 74.82c-1.7 0-2.51-.88-2.44-2.64 0-.71 0-1.07-.2-1.07-.52 0-.78.86-.78 2.59q0 4 4 6.74a17.52 17.52 0 0 0 10 2.68q10.69 0 19.38-7.91a50.22 50.22 0 0 0 6.49-7.08q2.92-3.9 12.78-18.95a133.54 133.54 0 0 1 11.58-14.89q6.69-7.47 11.37-10.69-7.61-6.5-22.36-6.49Q45.21 17.11 30 32 17.49 44.21 17.48 55A11.2 11.2 0 0 0 21 63.69q3.51 3.23 9.52 3.22 9.81 0 20.29-9.42t10.47-18.31q0-7.08-7.28-7.08t-15.6 8.12q-8.32 8.13-8.32 15.24a4.28 4.28 0 0 0 1.18 3 3.61 3.61 0 0 0 2.74 1.3c.56 0 .84.15.84.44s-.31.39-.93.39a4.85 4.85 0 0 1-4-2.12 8.33 8.33 0 0 1-1.62-5.2q0-7.6 8.35-14.83t17.14-7.22q8.4 0 8.4 7.76 0 9.48-10.7 19.14t-21.06 9.67q-6.8 0-10.86-4.08T15.48 52.8q0-13.81 15.6-25.22a57.14 57.14 0 0 1 34.5-11.4q14.36 0 24.12 6.39Q98.63 17 107 17a14.42 14.42 0 0 1 10.53 3.9 13.76 13.76 0 0 1 3.95 10.3Z" transform="translate(-3.52 -16.18)"/><path class="cls-2" d="M126.2 66.74a6.18 6.18 0 0 1-.88 1.27l-2.1 2.63q-10.12 12.48-17.35 12.48a7.6 7.6 0 0 1-5.75-2.46 8.72 8.72 0 0 1-2.32-6.18q0-8.79 12.26-15.48 6.45-3.51 10.5-3.51a4.5 4.5 0 0 1 3 1 3.22 3.22 0 0 1 1.24 2.56c0 2.34-1.52 4.34-4.59 6s-8.17 3.18-15.33 4.61q-3.31 5-3.32 8.4 0 4.2 4.55 4.2 7.73 0 18.91-15.06c.39-.52.72-.78 1-.78a.26.26 0 0 1 .18.32Zm-4.13-9.06q0-1.56-1.71-1.56-2.58 0-6.81 3.59a50 50 0 0 0-8.28 9.3 38 38 0 0 0 11.92-5.1c3.25-2.2 4.88-4.27 4.88-6.23Z" transform="translate(-3.52 -16.18)"/><path class="cls-2" d="M156.91 66.74q0 .74-5.38 6.68A59.52 59.52 0 0 1 136 85.22l-2.4 4.3q-7.08 12.69-14.79 18.9-8 6.39-13.82 6.39a4.65 4.65 0 0 1-3.34-1.27 4.11 4.11 0 0 1-1.35-3.12q0-9.83 22.61-20.32c1.24-.61 3.09-1.48 5.57-2.58l.73-.44 8.59-15.29a76.43 76.43 0 0 1-7.38 9.21 6.8 6.8 0 0 1-4.64 2.17 4.51 4.51 0 0 1-3.49-1.71 5.91 5.91 0 0 1-1.49-4q0-2.79 3.47-8.69L131.79 56a15.23 15.23 0 0 0 2.59.2 26.16 26.16 0 0 0 3.51-.34l-9.62 15.64q-4.09 6.65-4.1 8.69c0 1.47.67 2.2 2 2.2q5.28 0 16.21-18.7l4.5-7.67a16.15 16.15 0 0 0 2.73.2 20.37 20.37 0 0 0 3.27-.34q-6.06 9.62-16.41 28.22a50 50 0 0 0 10.07-6.66 73.65 73.65 0 0 0 9.2-10.11c.45-.59.75-.88.88-.88a.25.25 0 0 1 .29.29Zm-28.2 21.17q-.78.44-5.52 2.78Q101 101.73 101 110.51c0 2.45 1.36 3.67 4.1 3.67q5.17 0 10.3-5.62t12.7-19.68Z" transform="translate(-3.52 -16.18)"/><path class="cls-2" d="M188.21 66.59a1.37 1.37 0 0 1-.49.88l-2.1 2.89q-9.19 12.77-13.69 12.76a4.92 4.92 0 0 1-3.84-1.68 6.17 6.17 0 0 1-1.49-4.23q0-3.4 3.71-8.93 5.82-8.55 5.81-10.16c0-1.27-.66-1.9-2-1.9q-2.93 0-8 5.76-4.87 5.52-13.42 20.9a12.8 12.8 0 0 0-2.49-.3 18.67 18.67 0 0 0-2.89.3l7.18-13q1.5-2.78 4.5-8.19 1.62-2.64 9.92-16.8l7.42-12.6a12.53 12.53 0 0 0 2.49.29 14 14 0 0 0 3.71-.48q-5.09 8.15-15.14 24.41-.28.5-7.57 12.6 9.17-13.62 14.49-13.62a4.52 4.52 0 0 1 3.59 1.8 6.71 6.71 0 0 1 1.48 4.4q0 3.36-4.29 9.71-4.78 7.08-4.79 8.89a1.86 1.86 0 0 0 2.11 2.1q3.81 0 12.61-12.32l1.52-2.07.88-1.07c.16-.33.36-.49.58-.49s.2.02.2.15Z" transform="translate(-3.52 -16.18)"/><path class="cls-2" d="M222.63 66.69q0 1-7.13 9.49-5.77 6.94-9.1 6.94a4.55 4.55 0 0 1-3.66-1.68 6.33 6.33 0 0 1-1.42-4.23 12.75 12.75 0 0 1 1.56-5.71 67.79 67.79 0 0 1-7.47 9.23 7.59 7.59 0 0 1-5 2.39A5.34 5.34 0 0 1 186 80.9a8.67 8.67 0 0 1-1.76-5.59q0-9.37 13.23-16.6 5.81-3.23 9.37-3.22c2 0 3 1 3 2.93a8.43 8.43 0 0 1-.39 2.19l2.55-4.73a12.06 12.06 0 0 0 2.59.34 23.22 23.22 0 0 0 3.42-.34l-8.64 14.3q-4.5 7.53-4.5 9.91c0 1.53.64 2.3 1.91 2.3s3.39-1.49 6.26-4.47a83.78 83.78 0 0 0 8.75-11c.2-.33.38-.49.54-.49a.25.25 0 0 1 .3.26Zm-13.45-8.08c0-1.59-.73-2.39-2.2-2.39q-4.48 0-11.79 8.79t-7.3 14.21c0 2.11.94 3.17 2.83 3.17q3.38 0 11.67-11.18 6.8-9.21 6.79-12.6Z" transform="translate(-3.52 -16.18)"/><path class="cls-2" d="M261.84 66.69q0 1-7.09 9.49-5.81 6.94-9.14 6.94a4.72 4.72 0 0 1-3.69-1.71 6.18 6.18 0 0 1-1.49-4.2 9.29 9.29 0 0 1 .9-4.07 76.9 76.9 0 0 1 4.67-7.45q4-5.86 4-7.47c0-1.33-.7-2-2.1-2q-7.12 0-22 26.46c-1.6-.13-2.56-.19-2.88-.19a25.4 25.4 0 0 0-3.23.19l7.62-12.06q6.5-10.35 6.5-12.94c0-1-.41-1.46-1.23-1.46q-2.49 0-9.83 10.52c-.3.42-.52.65-.69.68s-.26-.09-.29-.29a.73.73 0 0 1 .2-.39l.93-1.22q7.47-10 10.07-10a3.5 3.5 0 0 1 2.87 1.48 5.73 5.73 0 0 1 1.17 3.61q0 3.14-3.66 8.69a85 85 0 0 1 8.86-10.88c2.07-2 4-2.93 5.74-2.93a4.53 4.53 0 0 1 3.61 1.75 6.56 6.56 0 0 1 1.46 4.35q0 3.27-4.49 10t-4.63 8.8a1.77 1.77 0 0 0 2 2q4.35 0 15-15.5c.16-.33.32-.49.49-.49a.26.26 0 0 1 .35.29ZM288.94 31.44c0 .16-.29.36-.88.58a11.81 11.81 0 0 0-3.32 2c-1 .87-1.49 1.59-1.49 2.18 0 .2.16.29.49.29 1.47 0 2.2.71 2.2 2.11a6.24 6.24 0 0 1-2 4.06c-1.32 1.43-2.56 2.15-3.74 2.15-1.33 0-2-.7-2-2.1q0-2.79 4-7.19t6.46-4.41a.26.26 0 0 1 .28.33ZM299.22 47.75q0 1.94-6.1 7.74a13.66 13.66 0 0 0-.3 2.63c0 1.89.87 4.88 2.59 9a13.66 13.66 0 0 1 1.32 5.17c0 2.93-1.43 5.47-4.27 7.62a16.35 16.35 0 0 1-10.14 3.22 7.33 7.33 0 0 1-5.32-1.89 6.63 6.63 0 0 1-2-5 11.74 11.74 0 0 1 2.61-7.13q2.61-3.47 5.4-3.47a2 2 0 0 1 .88.2l3.9-4.79c1.17-1.4 2.74-3.33 4.69-5.81a17.12 17.12 0 0 1 2.54-5.86c1.14-1.62 2.26-2.44 3.37-2.44.61-.05.83.24.83.81ZM292.43 67c0-1 0-2-.1-2.91s-.09-2.33-.09-4.12a28.48 28.48 0 0 1 .19-3.66q-2.73 3.47-7.91 9.76a2.41 2.41 0 0 1 .93 1.91q0 2.88-4.74 3.9a6 6 0 0 0-3.29 2.12 5.24 5.24 0 0 0-1.42 3.41 4.3 4.3 0 0 0 1.41 3.27A5 5 0 0 0 281 82q4.1 0 7.79-4.76A16.46 16.46 0 0 0 292.43 67ZM30.42 202H3.52v-.78h1a6.45 6.45 0 0 0 4.72-2q2-2 2-5.93V139a8.89 8.89 0 0 0-1.83-6 6.19 6.19 0 0 0-5-2.12h-.89v-.83H27a26.07 26.07 0 0 1 8.55 1.34 19.44 19.44 0 0 1 6.61 3.71 17.07 17.07 0 0 1 4.18 5.37A14.73 14.73 0 0 1 47.8 147a14 14 0 0 1-4.2 10.55 25.41 25.41 0 0 1-11.28 6v.2a54.36 54.36 0 0 1 6.21 1 23.28 23.28 0 0 1 5.37 1.91 19.84 19.84 0 0 1 4.49 3.17 18.93 18.93 0 0 1 3.22 3.86 17 17 0 0 1 2 4.56 18.72 18.72 0 0 1 .69 5.06 16.17 16.17 0 0 1-2.91 9.69 20.9 20.9 0 0 1-6.57 6.15Q39.6 202 30.42 202ZM18.6 163.08h4.69c3.84 0 6.58-.39 8.2-1.17a17.66 17.66 0 0 0 3.25-2.15 13.45 13.45 0 0 0 3.26-4.29 15 15 0 0 0 1.54-7.08 18.34 18.34 0 0 0-1-6.13 15.8 15.8 0 0 0-3-5.15 14 14 0 0 0-4.64-3.52 13.47 13.47 0 0 0-5.9-1.27 22.69 22.69 0 0 0-6.4 1.08Zm7.38 2.2H18.6v25.93a15.56 15.56 0 0 0 .52 4.32 5.31 5.31 0 0 0 2.8 3q2.29 1.28 7.08 1.27 9.91 0 14.12-6.59a19.66 19.66 0 0 0 1.44-17.63 15.48 15.48 0 0 0-4-5.54 18.11 18.11 0 0 0-6.32-3.49 26 26 0 0 0-8.24-1.27ZM83.84 130.08v.83a8.47 8.47 0 0 0-5.47 1.8q-2.25 1.81-2.25 6v54.59q0 4.14 2.4 6a8.4 8.4 0 0 0 5.32 1.88v.82H61v-.78a8.32 8.32 0 0 0 5.39-1.83c1.52-1.22 2.27-3.25 2.27-6.08v-54.59c0-3-.75-5.05-2.27-6.15a8.85 8.85 0 0 0-5.39-1.66v-.83ZM91.89 131.1h-1v-1h24.9a25 25 0 0 1 10.21 1.83 17.2 17.2 0 0 1 6.5 4.71 18.54 18.54 0 0 1 3.32 6 21 21 0 0 1 1 6.25 17.88 17.88 0 0 1-1.64 7.5 16.12 16.12 0 0 1-5 6.17 19.5 19.5 0 0 1-8.47 3.52v.2q6.45 3.12 11.91 12.4l6.5 11q4.4 7.38 7 9.33a10.65 10.65 0 0 0 5.25 2.2v.79h-13.06c-.56-.72-1.08-1.41-1.57-2.08l-1.56-2.12-1.44-2.22a17.17 17.17 0 0 0-1.15-1.69L125 179.68a35.94 35.94 0 0 0-5.3-7.05 20.1 20.1 0 0 0-5-3.88 14.92 14.92 0 0 0-4.22-1.47A29.93 29.93 0 0 0 106 167v26.32q0 7.66 7.81 7.91v.77H90.92v-.78a11.11 11.11 0 0 0 3.81-.81 6.12 6.12 0 0 0 2.76-2.41 8.64 8.64 0 0 0 1.09-4.66v-54.4q0-4.29-2.1-6a7 7 0 0 0-4.59-1.84Zm14.12 34h4.1a25.88 25.88 0 0 0 10.57-1.85 12.18 12.18 0 0 0 6-5.3 17.5 17.5 0 0 0 1.86-8.42 21 21 0 0 0-1.66-8.13 15.16 15.16 0 0 0-5.64-6.69q-4-2.72-10.72-2.71a19.14 19.14 0 0 0-4.49.44ZM211.77 144.09H211q-.54-7-4.11-9.11a17.21 17.21 0 0 0-8.78-2.07h-14.32v60.4q0 7.66 7.81 7.91v.78h-22.9v-.78a8.93 8.93 0 0 0 5.45-1.88q2.22-1.78 2.22-6v-60.4h-14.31a17.11 17.11 0 0 0-8.76 2.06q-3.54 2.09-4.13 9.11h-.78v-17.6h.78a11.28 11.28 0 0 0 1.37 1.81 5 5 0 0 0 1.51 1 7.72 7.72 0 0 0 2.17.58 21.05 21.05 0 0 0 3 .18h46.58a8.43 8.43 0 0 0 7.23-3.57h.78ZM273.19 163v-24.09a8.6 8.6 0 0 0-1.9-5.76c-1.27-1.5-3.24-2.24-5.91-2.24v-.83h22.9v.83q-4 0-5.86 2.22a8.75 8.75 0 0 0-1.85 5.78v54.4q0 7.91 7.71 7.91v.78h-22.9v-.78a8 8 0 0 0 5.74-2 7.69 7.69 0 0 0 2.07-5.83v-28.21H232v28.13a7.27 7.27 0 0 0 7.81 7.91v.78h-22.9v-.78a7.45 7.45 0 0 0 5.69-2.08 8.11 8.11 0 0 0 2-5.83v-54.4q0-8-7.67-8v-.83h22.9v.83c-2.7 0-4.67.74-5.93 2.22a8.66 8.66 0 0 0-1.88 5.78V163ZM295.26 130.91v-.83H323a53.52 53.52 0 0 1 10.72 1 44.83 44.83 0 0 1 8.79 2.66 37.19 37.19 0 0 1 6.71 3.64 31.7 31.7 0 0 1 4.79 4 36.39 36.39 0 0 1 5.81 7.6 35.71 35.71 0 0 1 3.59 8.81 38.49 38.49 0 0 1 1.19 9.57 36.61 36.61 0 0 1-1.17 9.37A33.11 33.11 0 0 1 360 185a33.91 33.91 0 0 1-5.25 6.86 37.79 37.79 0 0 1-7.1 5.57 33.52 33.52 0 0 1-8 3.32 46.3 46.3 0 0 1-12.11 1.25h-32.28v-.78h1a5.61 5.61 0 0 0 5-2.54 9.61 9.61 0 0 0 1.66-5.37V139a10.49 10.49 0 0 0-.9-4.59 5.85 5.85 0 0 0-2.42-2.68 6.82 6.82 0 0 0-3.37-.83Zm15.09 2.58v57c0 2.8.45 4.85 1.35 6.17a6.31 6.31 0 0 0 4.17 2.57 44.1 44.1 0 0 0 8.3.58 48.3 48.3 0 0 0 13.18-1.54q5.37-1.53 10.4-6.86a29.89 29.89 0 0 0 6-9.66 37.78 37.78 0 0 0 2.25-13.83 45.33 45.33 0 0 0-1.81-12.67 33.32 33.32 0 0 0-5.52-11.16 28.42 28.42 0 0 0-10.67-8.64 35.93 35.93 0 0 0-15.69-3.13 76.74 76.74 0 0 0-11.96 1.17ZM400.29 129.2l21.54 61.62a30.08 30.08 0 0 0 3.22 6.93 7.29 7.29 0 0 0 2.91 2.71 12.32 12.32 0 0 0 3.53.76v.78H408v-.78a17.41 17.41 0 0 0 5.56-.69c1.31-.45 2-1.69 2-3.71a15 15 0 0 0-.93-4.44 1.54 1.54 0 0 1-.2-.59L408 172.7h-24.9l-5.72 17.68a20 20 0 0 0-1.17 5.81c0 2 .5 3.36 1.51 4a7.86 7.86 0 0 0 4.3 1v.81h-16.88v-.78a8.57 8.57 0 0 0 5.78-2.76 20.66 20.66 0 0 0 3.79-7.35L395 129.2Zm-16.35 40.91h22.9L395.12 136h-.2ZM490.38 130.08v.83a11.5 11.5 0 0 0-5.74 1.51 16.34 16.34 0 0 0-3.93 3.05 48.14 48.14 0 0 0-3 3.83l-16.8 25.3v28.81a7.06 7.06 0 0 0 2.32 5.78 8.89 8.89 0 0 0 5.59 2v.81H446v-.78a8.15 8.15 0 0 0 5.49-2c1.35-1.25 2-3.2 2-5.83v-27.57l-18.31-27.44q-2.94-4.45-5.25-5.91a12.18 12.18 0 0 0-6.28-1.56v-.83h25.54v.83q-3.9.14-5 1.68a5.08 5.08 0 0 0-1.09 2.91q0 1.56 1.9 4.39l15 22.22 13.28-20c2-3 3-5.29 3-6.89a3.83 3.83 0 0 0-.81-2.59 4.1 4.1 0 0 0-1.63-1.22 15.07 15.07 0 0 0-1.76-.48v-.83ZM68.51 266.19h-.83a15.37 15.37 0 0 0-5-8.94 24.93 24.93 0 0 0-9.25-5.34 31.78 31.78 0 0 0-9.77-1.69 26.58 26.58 0 0 0-11.64 2.61 27.65 27.65 0 0 0-9.4 7.38 34.64 34.64 0 0 0-6.16 11.42 46.17 46.17 0 0 0-2.19 14.48 44.91 44.91 0 0 0 2.12 14 32.78 32.78 0 0 0 6.2 11.23 27.26 27.26 0 0 0 9.45 7.2A28.41 28.41 0 0 0 44 321a37.71 37.71 0 0 0 12-2.22 30.92 30.92 0 0 0 11.81-7.4v2.79a57.19 57.19 0 0 1-11.89 7.37 33.85 33.85 0 0 1-13.45 2.34A37.84 37.84 0 0 1 27 320.8a35 35 0 0 1-11.84-8.37 36.41 36.41 0 0 1-7.33-11.87A38.09 38.09 0 0 1 5.32 287a39.29 39.29 0 0 1 19.19-33.77A37 37 0 0 1 43.7 248a53.48 53.48 0 0 1 13.62 1.9l5.08 1.42a13.51 13.51 0 0 0 2.49.29 4.06 4.06 0 0 0 2.54-.56 3.84 3.84 0 0 0 1-2h.78ZM108.3 249.2l21.53 61.62a30.45 30.45 0 0 0 3.23 6.93 7.34 7.34 0 0 0 2.9 2.71 12.47 12.47 0 0 0 3.54.76v.78H116v-.78a17.45 17.45 0 0 0 5.56-.69c1.3-.45 2-1.69 2-3.71a15 15 0 0 0-.93-4.44 1.54 1.54 0 0 1-.2-.59L116 292.7H91.11l-5.71 17.68a20 20 0 0 0-1.17 5.81c0 2 .5 3.36 1.51 4a7.83 7.83 0 0 0 4.3 1v.81h-16.9v-.78a8.57 8.57 0 0 0 5.79-2.76 20.5 20.5 0 0 0 3.78-7.35L103 249.2Zm-16.36 40.91h22.9L103.12 256h-.19ZM144.43 321.22h1a6.31 6.31 0 0 0 4.66-2.08 8 8 0 0 0 2-5.83V259c0-3-.76-5.08-2.27-6.25a9 9 0 0 0-5.4-1.85v-.83h23v.83a9.36 9.36 0 0 0-5.37 1.8q-2.34 1.71-2.34 6.3v52.5c0 3.13.78 5.29 2.34 6.5s4.12 1.8 7.67 1.8h6.2a17.67 17.67 0 0 0 6.47-1 8.52 8.52 0 0 0 3.83-3 28.83 28.83 0 0 0 2.88-5.67h.83L187.21 322h-42.78ZM194.24 250.91v-.83h42.87v11.32h-.68q0-9.07-12.11-9.08h-15V285h13.18a18.28 18.28 0 0 0 7-1.27q3.07-1.28 3.52-5.81h.73v16.31H233a9 9 0 0 0-1.66-4.28 6.43 6.43 0 0 0-2.42-2 5.63 5.63 0 0 0-2.12-.49 21.9 21.9 0 0 0-3.67-.3h-13.8v25.54a10.52 10.52 0 0 0 1.1 5q1.09 2.1 5.1 2.1h10.69a15.5 15.5 0 0 0 6.35-1.12 9.54 9.54 0 0 0 3.93-3.13 18.48 18.48 0 0 0 2.42-4.83h.68L237.11 322h-42.87v-.78h1a7 7 0 0 0 4.5-1.86q2.19-1.85 2.19-6.05v-54.2a10.85 10.85 0 0 0-1.48-5.76c-1-1.63-2.73-2.44-5.21-2.44ZM319.78 250.08v.83a15 15 0 0 0-4.32 1.05 4.91 4.91 0 0 0-2.47 2.78 15.83 15.83 0 0 0-.88 6v63.09h-.49l-55.22-61.65v44.24a54.67 54.67 0 0 0 .44 8.21 9.43 9.43 0 0 0 1.27 3.85q1.8 2.55 6.29 2.74v.78h-18v-.78a9.09 9.09 0 0 0 4.71-1.3 6.63 6.63 0 0 0 2.39-4.2 44.1 44.1 0 0 0 .71-9.2V259.6l-2.39-2.69a19.86 19.86 0 0 0-5.08-4.56 16.81 16.81 0 0 0-4.74-1.44v-.83h13.53L309.91 311v-46.42a55 55 0 0 0-.41-7.82 6.78 6.78 0 0 0-2.2-4.15q-1.79-1.56-5.59-1.7v-.83ZM326.71 250.91v-.83h27.68a53.45 53.45 0 0 1 10.72 1 44.83 44.83 0 0 1 8.79 2.66 37 37 0 0 1 6.72 3.64 31.59 31.59 0 0 1 4.78 4 35.72 35.72 0 0 1 5.81 7.6 35.33 35.33 0 0 1 3.59 8.81 38 38 0 0 1 1.2 9.57 36.18 36.18 0 0 1-1.18 9.37 33.08 33.08 0 0 1-3.36 8.23 33.91 33.91 0 0 1-5.25 6.86 38.2 38.2 0 0 1-7.11 5.57 33.35 33.35 0 0 1-8 3.32A46.19 46.19 0 0 1 359 322h-32.29v-.78h1a5.59 5.59 0 0 0 5-2.54 9.62 9.62 0 0 0 1.67-5.37V259a10.49 10.49 0 0 0-.91-4.59 5.8 5.8 0 0 0-2.42-2.68 6.8 6.8 0 0 0-3.36-.83Zm15.09 2.58v57c0 2.8.44 4.85 1.34 6.17a6.35 6.35 0 0 0 4.17 2.57 44.22 44.22 0 0 0 8.31.58 48.35 48.35 0 0 0 13.18-1.54q5.37-1.53 10.4-6.86a30.07 30.07 0 0 0 6-9.66 38 38 0 0 0 2.24-13.82 45.69 45.69 0 0 0-1.8-12.67 33.7 33.7 0 0 0-5.52-11.16 28.49 28.49 0 0 0-10.67-8.64 36 36 0 0 0-15.7-3.13 76.52 76.52 0 0 0-11.95 1.16ZM431.74 249.2l21.53 61.62a30.51 30.51 0 0 0 3.22 6.93 7.29 7.29 0 0 0 2.91 2.71 12.47 12.47 0 0 0 3.54.76v.78h-23.49v-.78a17.48 17.48 0 0 0 5.57-.69c1.3-.45 2-1.69 2-3.71a15 15 0 0 0-.93-4.44 1.48 1.48 0 0 1-.19-.59l-6.4-19.09h-24.9l-5.71 17.68a20 20 0 0 0-1.17 5.81c0 2 .5 3.36 1.51 4a7.83 7.83 0 0 0 4.3 1v.81h-16.9v-.78a8.57 8.57 0 0 0 5.79-2.76 20.5 20.5 0 0 0 3.78-7.35l20.31-61.91Zm-16.36 40.91h22.9L426.56 256h-.19ZM468.55 251.1h-1v-1h24.9a25 25 0 0 1 10.18 1.85 17.2 17.2 0 0 1 6.5 4.71 18.54 18.54 0 0 1 3.32 6 21 21 0 0 1 1 6.25 17.88 17.88 0 0 1-1.64 7.5 16.12 16.12 0 0 1-5 6.17 19.5 19.5 0 0 1-8.47 3.52v.2q6.45 3.12 11.91 12.4l6.5 11q4.39 7.38 7 9.33a10.65 10.65 0 0 0 5.25 2.2v.77h-13c-.56-.72-1.08-1.41-1.57-2.08l-1.56-2.12-1.44-2.22a17.17 17.17 0 0 0-1.15-1.69l-8.59-14.21a35.94 35.94 0 0 0-5.3-7.05 20.1 20.1 0 0 0-5.05-3.88 14.92 14.92 0 0 0-4.22-1.47 29.93 29.93 0 0 0-4.42-.29v26.32q0 7.67 7.81 7.91v.78h-22.9v-.78a11.11 11.11 0 0 0 3.81-.81 6.12 6.12 0 0 0 2.76-2.44 8.64 8.64 0 0 0 1.09-4.66v-54.4q0-4.29-2.1-6.05a7 7 0 0 0-4.62-1.76Zm14.12 34h4.1a25.88 25.88 0 0 0 10.57-1.85 12.18 12.18 0 0 0 6-5.3 17.5 17.5 0 0 0 1.86-8.42 21 21 0 0 0-1.66-8.13 15.16 15.16 0 0 0-5.64-6.69q-4-2.72-10.72-2.71a19.14 19.14 0 0 0-4.49.44Z" transform="translate(-3.52 -16.18)"/></g></g></svg>