<svg xmlns="http://www.w3.org/2000/svg" xmlns:xlink="http://www.w3.org/1999/xlink" viewBox="0 0 112.5 133.79"><defs><style>.cls-1{font-size:90px;}.cls-1,.cls-3{fill:#ffff8d;font-family:EdwardianScriptITC, Edwardian Script ITC;}.cls-2{fill:url(#Unbenannter_Verlauf_48);}.cls-3{font-size:45px;}.cls-4{fill:url(#Unbenannter_Verlauf_48-3);}</style><linearGradient id="Unbenannter_Verlauf_48" x1="14.29" y1="81.5" x2="102.14" y2="81.5" gradientUnits="userSpaceOnUse"><stop offset="0" stop-color="#a47a1e"/><stop offset="0.05" stop-color="#b0862a"/><stop offset="0.2" stop-color="#d3a84c"/><stop offset="0.34" stop-color="#ffec94"/><stop offset="0.52" stop-color="#e6be69"/><stop offset="0.7" stop-color="#ffd87c"/><stop offset="0.85" stop-color="#b58f3e"/><stop offset="1" stop-color="#956d13"/></linearGradient><linearGradient id="Unbenannter_Verlauf_48-3" x1="2.83" y1="29.55" x2="71.53" y2="29.55" xlink:href="#Unbenannter_Verlauf_48"/></defs><g id="Ebene_2" data-name="Ebene 2"><g id="Ebene_1-2" data-name="Ebene 1"><text class="cls-1" transform="translate(2.25 104.26)">02</text><path class="cls-2" d="M59,69.48Q59,79.54,49,90.94q-12.26,13.85-22.66,13.85A11.1,11.1,0,0,1,17.66,101a13.93,13.93,0,0,1-3.37-9.67q0-11.81,14.51-24,12.54-10.5,20-10.5a9,9,0,0,1,7.43,3.47A14.19,14.19,0,0,1,59,69.48Zm-3.21-4.83q0-7.2-6.92-7.19-5.67,0-13.11,6.68A59.48,59.48,0,0,0,23.66,79.38q-5.28,9.34-5.28,16.51,0,8.28,7.84,8.28,9.66,0,19.41-13.49A60.76,60.76,0,0,0,53,77.18,35.1,35.1,0,0,0,55.82,64.65Z"/><path class="cls-2" d="M102.14,66.89a14.53,14.53,0,0,1-5,10.81,34.75,34.75,0,0,1-7.43,5.43q-3.83,2.06-15.07,6.53-14.07,5.64-19.38,12.1a13.58,13.58,0,0,1,8.57-3.08,34.67,34.67,0,0,1,9.72,1.89,29.27,29.27,0,0,0,7.91,1.63,9.86,9.86,0,0,0,6.93-3,15.34,15.34,0,0,0,4.33-7.69c.09-.35.25-.52.48-.52a.26.26,0,0,1,.18.17q0,2.5-3,6.68-5.49,7.65-13.67,7.65a34.61,34.61,0,0,1-9-1.8q-7.17-2.16-9.1-2.16c-3.05,0-4.73,1.22-5.06,3.65-.05.67-.26,1-.61,1a.31.31,0,0,1-.35-.35q0-2.07,3.51-5.67A34.24,34.24,0,0,1,62.24,95q3.33-2,12.12-6.15,11-5.19,17.3-11.93t6.26-13.38a5.34,5.34,0,0,0-2-4.4,8.66,8.66,0,0,0-5.52-1.62q-7.74,0-16.74,7.93t-9,14.74q0,5,6,5,4.75,0,10.57-4.64a24.86,24.86,0,0,0,8-10c.09-.29.22-.44.39-.44a.24.24,0,0,1,.27.27q0,1.89-3.78,6.37a28.85,28.85,0,0,1-7.6,6.41,15.77,15.77,0,0,1-7.7,2.51,7.41,7.41,0,0,1-5.44-2,7.23,7.23,0,0,1-2-5.36q0-8.22,10.86-15.38Q82.93,57,90.54,57a12.48,12.48,0,0,1,8.37,2.74A8.92,8.92,0,0,1,102.14,66.89Z"/><text class="cls-3" transform="translate(0 36.9)">Day</text><path class="cls-4" d="M56.43,14.3a11,11,0,0,1-.27,2.36c-.17.83-.34,1.24-.5,1.24s-.13,0-.13-.13a.82.82,0,0,1,0-.28,8.84,8.84,0,0,0,.5-3.14A6,6,0,0,0,54.39,9.9a6,6,0,0,0-4.45-1.67q-5.31,0-10.3,5a15.46,15.46,0,0,1,1.89,7.43A15.85,15.85,0,0,1,36,32.92a19.36,19.36,0,0,1-13.5,5,44.92,44.92,0,0,1-6.75-.68,38.8,38.8,0,0,1-7.11.68q-5.81,0-5.81-1.16c0-.38.48-.72,1.42-1a11,11,0,0,1,3.31-.44,54.44,54.44,0,0,1,9.1,1.49A15.77,15.77,0,0,0,23.89,33q2.57-2.52,7.88-11a43.77,43.77,0,0,1,7.06-8.77q-3.21-5.4-10.4-5.4-7.42,0-13.62,5.84a25,25,0,0,0-5,6.51A14.3,14.3,0,0,0,8,26.73a5,5,0,0,0,1.51,3.8,5.56,5.56,0,0,0,4,1.43q4.2,0,8.71-4.53t4.52-8.7a3.66,3.66,0,0,0-.88-2.55,3,3,0,0,0-2.31-1c-1.09,0-1.63.18-1.63.53q0,.15.24.15a.46.46,0,0,0,.22,0h.31q1.08,0,1.08,1a1.7,1.7,0,0,1-.55,1.26,1.8,1.8,0,0,1-1.3.54c-.89,0-1.34-.48-1.34-1.45a2.12,2.12,0,0,1,.88-1.69,3.32,3.32,0,0,1,2.13-.71,3.43,3.43,0,0,1,2.61,1.07,3.93,3.93,0,0,1,1,2.78q0,4.44-4.63,9.07t-9.06,4.64a6.71,6.71,0,0,1-5-2,7.18,7.18,0,0,1-2-5.22q0-6.84,6.74-12.25A23.73,23.73,0,0,1,28.43,7.43q7.23,0,10.9,5.34,5.37-4.93,10.9-4.94a5.92,5.92,0,0,1,4.48,1.79A6.49,6.49,0,0,1,56.43,14.3ZM15,37.12a71.74,71.74,0,0,0-9.06-.86c-1.75,0-2.63.17-2.63.51q0,.76,5.75.77A38,38,0,0,0,15,37.12Zm25.35-18a12,12,0,0,0-1.18-5.27,34.87,34.87,0,0,0-5.32,8.5q-3.11,6.8-6.42,9.78t-10,4.9a28.9,28.9,0,0,0,5.94.59q8.41,0,13.64-8.15A19.19,19.19,0,0,0,40.34,19.08Z"/><path class="cls-4" d="M57.67,30q0,.46-3.21,4.27-2.6,3.12-4.1,3.12a2,2,0,0,1-1.64-.75,2.84,2.84,0,0,1-.64-1.9,5.69,5.69,0,0,1,.7-2.57,31.12,31.12,0,0,1-3.36,4.15,3.4,3.4,0,0,1-2.27,1.07,2.42,2.42,0,0,1-1.95-1,3.93,3.93,0,0,1-.79-2.52q0-4.22,6-7.47A9.42,9.42,0,0,1,50.58,25a1.18,1.18,0,0,1,1.36,1.32,3.64,3.64,0,0,1-.17,1l1.12-2.14a4.85,4.85,0,0,0,1.16.16,9.22,9.22,0,0,0,1.54-.16L51.7,31.58c-1.35,2.26-2,3.74-2,4.46s.29,1,.86,1,1.52-.68,2.82-2a37.67,37.67,0,0,0,3.93-5c.09-.15.17-.22.25-.22A.12.12,0,0,1,57.67,30Zm-6.06-3.64c0-.71-.32-1.07-1-1.07q-2,0-5.31,3.95T42,35.65c0,1,.43,1.43,1.28,1.43q1.52,0,5.25-5C50.6,29.29,51.61,27.4,51.61,26.37Z"/><path class="cls-4" d="M71.53,30a14.54,14.54,0,0,1-2.42,3,27,27,0,0,1-7,5.31L61,40.28a28.62,28.62,0,0,1-6.66,8.51c-2.38,1.92-4.46,2.88-6.22,2.88a2.1,2.1,0,0,1-1.5-.58,1.87,1.87,0,0,1-.61-1.4q0-4.42,10.18-9.14c.55-.28,1.39-.67,2.5-1.17l.33-.2,3.87-6.87a34.36,34.36,0,0,1-3.32,4.12,3.05,3.05,0,0,1-2.09,1A2,2,0,0,1,56,36.64a2.72,2.72,0,0,1-.67-1.81,9.26,9.26,0,0,1,1.56-3.91l3.39-5.71a6.59,6.59,0,0,0,1.16.09A10.29,10.29,0,0,0,63,25.14l-4.33,7c-1.23,2-1.84,3.29-1.84,3.91s.3,1,.9,1q2.37,0,7.3-8.42l2-3.45a7,7,0,0,0,1.23.09,8.23,8.23,0,0,0,1.47-.16Q67,29.48,62.34,37.84a22.66,22.66,0,0,0,4.53-3A33.13,33.13,0,0,0,71,30.3c.21-.27.34-.4.4-.4A.12.12,0,0,1,71.53,30ZM58.84,39.56c-.23.13-1.06.55-2.48,1.25q-10,5-10,8.92c0,1.1.62,1.65,1.85,1.65,1.55,0,3.1-.84,4.63-2.53A46.93,46.93,0,0,0,58.56,40Z"/></g></g></svg>